<svg version="1" xmlns="http://www.w3.org/2000/svg" width="533.333" height="533.333" viewBox="0 0 400.000000 400.000000"><path d="M0 200v200h57.9l.3-2.8c.4-3.2 2.3-2.7 2.3.5-.1 2 .4 2.3 3.8 2.3s3.8-.2 3.2-2c-.4-1.1-.2-2 .4-2 .6 0 1.1.9 1.1 2 0 1.9.6 2 19.8 1.9 10.8-.1 18.8-.3 17.7-.6-7.2-1.7-1-3.3 13-3.3 5 0 9.7 0 10.5-.1 3.9-.2 9.1.5 9.6 1.3.3.4 1.1.5 1.7.1 2.5-1.5 1.9-1.5 38.3-1.3 16.6.2 30.7-.1 31.3-.4.6-.4 1.1-.3 1.1.1 0 .5 3.9.7 8.8.6 4.8-.2 9.4-.3 10.2-.2 2.7.2 18.3.2 26-.1 4.1-.1 8-.1 8.5 0 1.8.5 3 .8 3.9.9.5 0 .3.8-.4 1.6-.8.9-.8 1.5-.2 1.5.6 0 1.3-.8 1.6-1.8.4-1.2 1.5-1.8 2.9-1.7 1.2.1 3.3-.2 4.6-.7 2.8-1 3.4-.7 2.5 1.5-.4 1.1-2.1 1.7-5.2 2-2.6.2 2.7.3 11.8.3 9.1 0 12-.2 6.5-.3-5.5-.2-10.4-.8-10.9-1.3-.7-.7-.5-1 .5-1.1.7-.1 2.5-.3 3.9-.4 5.8-.7 38.8-.6 41.7 0 5.7 1.2 2.6 2.3-6.8 2.4-5 0-9.4.2-9.7.6-.3.3 6.4.5 14.9.5 14 0 15.5-.2 15.6-1.8.1-.9.3-3.4.6-5.5.2-2.1.1-4-.3-4.2-.9-.6 0-5.5 1-5.5 1.8 0 3 3 2.8 7.1-.1 2.4-.1 5.6 0 7.1l.2 2.8h15.7l-1-5.7c-.5-3.2-1.1-7.7-1.2-10.1-.2-2.4-.9-5-1.5-5.7-.7-.8-.9-1.8-.6-2.3.3-.5.1-2.4-.5-4.3-.5-1.9-1.1-5.3-1.3-7.7-.1-2.3-.8-4.8-1.4-5.4-.7-.7-.8-1.7-.1-2.9 1.3-2.5.1-6.9-1.7-6.2-.8.3-1.4 1.1-1.4 1.9 0 .8-.4 1.4-.8 1.4-.5 0-.8 1.3-.7 3 .1 1.6-.2 3-.7 3-.4 0-.8.7-.8 1.5s-.3 1.5-.7 1.5c-.5 0-.8 2.1-.7 4.8 0 2.6-.4 5-.9 5.3-.6.4-.6 1.3-.1 2 1.3 2.2 1.5 4.9.3 4.9-.6 0-.9.7-.5 1.5.3 1-.1 1.5-1.3 1.5-1.5 0-1.9-.8-1.8-4.2 0-2.4.5-4.6 1.1-5 .8-.6.7-1-.1-1.6-1.2-.8-1-6.2.4-8.5.4-.6.6-2.3.5-3.7-.1-1.4.8-6.7 2.2-11.8 1.3-5.1 2-9.5 1.6-9.7-.5-.3-.1-1.9.7-3.6 1.8-3.6 1.1-4.6-3.7-5.4-4.2-.7-5.2-1.5-1.8-1.5 1.3 0 2.8-.3 3.2-.7.8-.8 1.2-.9 3.9-1.2 1.9-.1 3.6-4.2 2.7-6.5-.4-1.4-.9-1.6-1.4-.8-1 1.6-4.9 1.6-4.4-.1.3-.6 2-1.4 3.9-1.7 2.7-.4 3.5-1.1 4.2-3.5.5-1.7 1.5-5 2.3-7.5.8-2.5 1.4-5.4 1.4-6.6 0-1.1.4-2.4 1-3 .5-.5 1.2-4.6 1.6-9.2.6-7.5.9-8.2 2.8-8.2 1.2 0 3.2.6 4.6 1.3 3.3 1.6 3.6 6.6.7 11.5-1.1 1.9-2.2 4.3-2.2 5.3-.2 2.4-2.7 4.7-4.5 4.1-1.3-.4-1.3-.3-.2 1.1 1.1 1.3 1 1.5-.7 1-1.2-.3-2.1-.1-2.1.5 0 .5 1.2 1.3 2.6 1.6 3.4.9 3 4.9-.6 5.4-3.3.5-4.9 1.9-4.5 4 .1 1.1 1.1 1.7 2.9 1.7 2.2-.1 2.6.3 2.4 2-.2 1.1-.9 1.9-1.6 1.7-2.2-.4-5.2 1.8-5.2 3.8 0 2.4 1.7 3.5 3.4 2.1 1.6-1.4 2.6-.4 2.6 2.6 0 2.7-2.8 4.3-4 2.2-.7-1.1-1-1-1.5.3-1 2.7-.1 4.3 2.5 4.3 2.4 0 2.4.2 4.1 17.5 1 9.6 2.2 19.5 2.8 22 .5 2.5 1.2 7.2 1.6 10.5.3 3.3 1.1 8.1 1.7 10.7l1.2 4.8h4.8c3.3 0 4.7-.4 4.2-1.1-.3-.6-1.4-.9-2.4-.6-1.5.4-3-1-3-2.7 0-.2 1.7 0 3.8.3 2.8.5 3.6 1.1 3.4 2.4-.3 1.5.8 1.7 8.8 1.7h9V0h-58.5c-58.2.1-58.5.1-56.7 2 1 1.1 2.9 2 4.3 2 5.7-.1 14.4 1.2 15.1 2.3 1.3 2 .9 2.7-1.7 2.7-1.4 0-2.5.4-2.5 1 0 .5-1.2.7-2.7.4-1.6-.3-4.1 0-5.7.6l-3 1.1 2.7 1.4c1.5.7 4.8 1.6 7.4 1.9 2.7.4 5.4.7 6 .8.7.1 2 .9 2.9 1.9 1.4 1.6 1.2 1.8-2.6 2.4-2.3.4-4.6.3-5.3-.3-.8-.7-1.8-.6-3 .2-2.6 1.9-2.2 3.9.7 3.2 1.2-.3 2.6-.2 3 .2.4.4 2.2.8 3.9.8 5.5.3 7.2 1 7.2 3 0 1.6-1.1 2.1-6.7 2.9-7.1 1.1-8.4 1.7-7.3 3.5.5.8 1 .8 2 0s1.9-.8 3.4-.1c1.1.6 3.3 1.1 5 1.1 2.6 0 3.1.4 3.1 2.5 0 1.7-.6 2.5-1.7 2.6-4.7.4-5.9.4-7.4-.3-.8-.3-2.2-.2-3 .3-.7.5-.9.9-.4.9.6 0 .1.7-.9 1.5-4 3 .6 4.2 11.4 3.1 3.9-.3 6.1-.1 7.4.9 1.1.8 1.6 1.8 1.2 2.2-.6.7-13.8.8-16.5.1-.7-.2-1.9.7-2.8 1.9-1.4 2-1.3 2.3 1.9 3.9 4.4 2.2 4.4 2.2 2.5 3.7-.9.6-2 2.7-2.3 4.4-.5 2.6-.3 3.3.9 3.3 2 0 3.7-3 3.7-6.4 0-2.8 1.6-4.2 4.5-3.8 1.2.2 3.4-.4 5-1.2 1.7-.9 3.5-1.6 4.1-1.6 1.5 0 5.1 4.1 6.3 7.2.9 2.3.8 2.8-.5 2.8-.8 0-1.7-.7-2-1.5-.8-2.1-2.1-1.9-3.5.6-.7 1.3-.7 1.9-.1 1.5.6-.4 1.5.2 2.1 1.1.8 1.5 1.3 1.6 2.9.6 2.4-1.5 4.2 0 4.2 3.5 0 1.7-.4 2.2-1.5 1.8-5.1-2-4.9-2.1-4.1 1.4.8 4.2 1.2 4.6 3.2 3 1.3-1.2 1.7-1.1 2.5.1.5.8.6 2.3.3 3.4-1 3-1.5 8.8-1.8 20.5-.5 16.3-.2 15-3.7 15-1.7 0-2.8.4-2.4 1 .3.5 1.9 1 3.6 1 1.9 0 2.9.5 2.9 1.5s-1 1.5-3.2 1.5c-2.3 0-2.9.3-1.9.9 2 1.3 0 2-5.1 1.7-3.5-.3-5 .1-6.2 1.5-1.3 1.6-1.3 1.9-.1 1.9.7 0 1.6-.4 2-1 1-1.6 7.1-.5 9.5 1.8 2.3 2.1 2.3 2.2.4 2.2-1.2 0-2.4.3-2.8.7-.4.4-4.5.7-9.2.8-7.3 0-8.8.3-10 2-2.2 3-.1 4 8.9 4.4 1.7.1 2.7.7 2.7 1.6 0 .9-1 1.6-2.7 1.6-1.6.1-3.7.2-4.8.3-1.1.1-2.1.9-2.3 1.8-.5 2.8 2.3 4.8 6.7 4.8 3 0 4.1.4 4.1 1.5s-1.1 1.5-4 1.5h-4l1.3 3.2c1.1 2.6 2 3.4 4.5 3.6 3.9.4 4.5 3.2.7 3.2-1.4 0-2.5.2-2.5.5 0 1.4 3.1 6.4 4.2 6.7.7.3.9 1.1.4 2.4-.4 1-.9 4.6-1.1 7.9-.2 3.3-.5 7.4-.7 9.2-.4 3.4-3.9 7.2-6.7 7.4-.9 0 .2.9 2.4 1.9 2.6 1.2 4 2.6 4.1 3.9.1 1.7-.2 1.8-1.7 1-1.4-.7-2.6-.5-4.4.7-2.8 1.8-3 2.5-1.3 4.2.6.6 1.7.8 2.7.3 1.7-.9 4.9-.7 5.9.3 1 1.1.9 13-.1 15.4-.8 1.6-.7 2.9.3 4.8 1.3 2.3 1.2 2.7-1.4 4.7l-2.7 2.2 2.5 2.4c1.4 1.4 2.6 2.8 2.6 3.2 0 .7-3.9 2.2-5.2 2-.5-.1-.8.9-.8 2.2 0 2.2 3.6 4.7 6.9 4.7 2.3.1-3.7 2.6-8.1 3.4-5.4 1-4.8 3.2 1.2 4.7 6.7 1.7 6.6 3.6-.2 4.4-1.7.3-4.1 1.1-5.3 1.9-1.5 1-2.6 1.1-3.3.4-.6-.6-1.2-.6-1.6.1-.4.6-.5 1.2-.2 1.2 1.2.3 2.1.6 3.6 1.2.8.3 2.4.7 3.5.9 3.3.6-3.9 4.5-9.7 5.3-4.3.6-4.9 1-4.6 2.9.3 2 .7 2.1 11.8 1.9 7.8-.2 11 0 10 .7-.8.5-2.3 1-3.2 1-1 0-1.8.4-1.8 1 0 .5-1.1 1-2.4 1-1.2 0-3.8 1-5.7 2.3-4.4 3-5.9 8.4-3.5 13.4.9 1.8 1.6 5.2 1.6 7.3 0 2.2.5 4 1 4 1.8 0 1 1.8-1 2.5-2 .6-5 5.2-5 7.6 0 .8 1.6 1 5.5.6 3-.3 5.7-.1 6 .4.4.5-1.6.9-4.4.9-3.1 0-5.5.6-6.5 1.5-2 2.1-8.9 1.9-11.6-.3l-2.2-1.8 4-2.6c2.1-1.5 4.2-3.6 4.5-4.8.5-1.9.2-2.1-1.9-1.7-1.3.2-2.4 0-2.4-.4 0-.5 1.3-.9 3-.9 3.7 0 5.4-2.8 4-6.5-.5-1.4-1.4-2.4-1.9-2.1-.5.4-.7-.2-.4-1.2.2-1.1-.3-3.6-1.1-5.7-1.9-4.5-1.7-5 6.6-10.5 6.5-4.3 5.7-5-2.9-2.3-6.7 2.1-9 4.3-10.5 9.9-1.3 4.8-2.8 5.9-2.8 1.9 0-2.7-1.8-3.2-5.1-1.5-2.2 1.2-16.1 2.2-28.6 2.1-6-.1-8.3.2-8.3 1.1-.1.9-.4.9-1.3-.2-1.5-1.8-17.8-2.1-18.4-.3-.5 1.4 9.6 3.6 11.1 2.5.6-.5 3.6-.7 6.6-.6 3 .2 9.9.4 15.3.4 8.2-.1 9.7.2 9.7 1.5 0 .9.4 1.4.9 1 .5-.3 1.2-.1 1.6.5.4.6-.9 1-3.3 1-2.2 0-6.3.5-9.3 1-3 .6-8 1.1-11.1 1.2-3.2.1-5.8.6-5.8 1 0 .5-.6.6-1.2.1-1.6-1-13.8-1.1-13.8-.1 0 .5-.9.8-1.9.8-1.7 0-1.8.3-.8 2.4s1.3 2.2 2.4.7c1.1-1.5 1.2-1.4 1.3.2 0 1.1-.9 2.1-2 2.4-1.1.3-2 .8-2 1.2 0 .9-17.9 1.3-19.2.5-1.6-1-15.8-1-16.1-.1-.1.5-3.2.9-6.7.9s-7.4.4-8.6.8c-1.2.5-2.5.5-3.1-.1-1.4-1.4-9.1-2.1-26.8-2.3-18.5-.3-19.8-.4-17-1.5 1.1-.5 9.5-.7 18.8-.5 10.3.2 16.7-.1 16.7-.7 0-.5 1.2-.8 2.7-.7 2 .2 2.8-.2 3.1-1.5.5-2.7-1.7-4.8-4.3-4.1-1.5.4-2.4 0-2.9-1.1-.9-2.4.2-3.7 2.3-2.5 1.4.7 2.1.4 3.1-1.6 1.2-2.1 1.1-2.6-.7-4.3-1.3-1.3-2.5-1.6-3.5-1-2.1 1.2-4.6-1.5-2.6-2.8.7-.4 2.2-.8 3.3-.8 1.3 0 2.1-.8 2.3-2.3.4-2.7-1.7-5.9-2.8-4.2-.7 1.2-4 .3-4-1 0-2.8 7.3-3 79-2.7 20.1.1 34-1.3 34-3.4 0-.8-4-1.4-6.4-1-.5.1-.6-.5-.3-1.3.5-1.1-.3-1.3-4.1-.8-6.3.8-42.1.7-45.2 0-1.4-.4-3.4-.7-4.5-.8-3.9-.3 4-2.9 9.9-3.2 3.1-.2 5.6-.6 5.6-1.1 0-.7-.6-.8-6-1.2-1.4-.1-3.5-.7-4.6-1.3-1.2-.6-2.9-1.1-4-1.1-1 0-4.4-.3-7.4-.5s-8.5-.5-12.2-.5c-6.2-.1-6.8-.3-6.8-2.2 0-1.8.4-2 2.8-1.4 1.5.4 3.4.7 4.2.6.8-.1 2.4-.1 3.5-.1 3.6 0 11.5-2.2 11.5-3.2 0-.6-.9-.8-2-.5-1 .3-2.1 0-2.3-.6-.2-.6-1.9-1.2-3.8-1.3-1.8-.2-5.4-.5-7.9-.7-6.5-.6-11-1.7-11-2.8 0-.5 1.2-1 2.8-1.1 1.5-.1 3.4-.2 4.2-.4.8-.1 3.1-.2 5.2-.3 3.1-.1 3.5-.4 3.1-2.1-.3-1.1-.8-2-1.2-2.1-.3-.1-2.8-.3-5.6-.4-14.4-1-16.8-1.4-17.6-2.6-.4-.7-.6-1.5-.4-1.7.6-.6 7.7-1.3 12.7-1.2 2.5.1 4.9-.3 5.2-.8 1.2-2-2.3-3.1-11-3.7-4.9-.3-11.3-1-14.1-1.6-10.3-2-4.5-5.4 8.5-5 3.8.2 6.2-.2 6.2-.8 0-.6-.8-1.1-1.8-1.1s-2.1-.3-2.5-.6c-.3-.4-4.6-.8-9.4-1.1-11.2-.5-10.5-.3-12.7-2.4-1.8-1.8-1.8-1.9.8-2.9 1.4-.5 5-.8 7.9-.5 5.3.4 8.7-.1 8.7-1.4 0-1.3-6.5-3.1-9-2.5-4 .9-4.3.9-8.8 0-4.5-.8-7.6-4.1-5.2-5.6.7-.4 6.3-.8 12.5-.9 6.2 0 12-.3 12.8-.7.9-.3 2.4-.1 3.3.4 1.2.6 2.7.7 4.3.1 1.3-.6 2.7-.6 3-.2 1.7 2.3 8 3.3 14.7 2.3 3.8-.6 14.3-1.7 23.2-2.4 17.6-1.5 24.2-3.6 11.7-3.8-18.8-.1-31.5.1-34.6.7-4.2.8-4.4.8-31.8.1-23-.6-24.5-.8-23.8-4.6.2-1.1 1.7-1.6 5.2-1.7 8.4-.3 10.8-.8 11.2-1.9.2-.6-1.3-1-3.4-1.1-3.5 0-14.6-1.3-14.9-1.6-.1-.1-.4-1.1-.8-2.3-.6-1.8 0-2.2 5.1-3.4l5.8-1.3-4-1.3c-2.2-.7-5.3-1.3-6.8-1.3-3.2-.1-7-1.8-6.3-2.9.3-.4-1.8-2-4.5-3.5-4-2.3-4.9-3.3-4.9-5.5 0-2.1-.2-2.4-1-1.2-.9 1.3-1 1.3-1 0 0-.8.4-2.1.9-2.9.9-1.4-2.5-13.1-4.2-14.2-1.3-.9-.3-4.4 1.2-4.1.7.1 1.9-.2 2.6-.8 1.5-1.3 8.5-.3 8.5 1.1 0 .5.7.9 1.5.9 1.2 0 1.3.4.6 1.8-.8 1.5-2 1.8-6 1.6-3.8-.1-5.1.2-5.1 1.2 0 .8.9 1.4 1.9 1.4 1.1 0 2.3.4 2.6 1 .9 1.5 2.5 1.2 2.5-.5 0-.8.6-1.5 1.4-1.5.8 0 1.6.7 2 1.5.3.8 1.1 1.5 1.7 1.5 1.2 0 3.8 2.9 3.9 4.2 0 .3-.9.4-2 .1-1.1-.3-2-.1-2 .5s-.3 1.8-.7 2.8c-.5 1.3-.3 1.6 1 1.1.9-.3 1.9-.2 2.2.3.3.5 1.2.7 1.9.4.8-.3 2.8.2 4.5 1 2.6 1.4 3.1 1.4 3.8.2.4-.8 2.1-1.6 3.8-1.8 2.6-.3 6.9-2.7 6.1-3.5-.1-.2-2.7.1-5.6.7-3 .6-6.1.8-7.1.5-2.9-1-10.9-19.4-10.9-25.3 0-.6 7.2-1 17.3-1.1 20.5-.1 26.2-.5 26.3-2 .3-2.4.4-2.4 1.7-.8 1.1 1.6 4.4 2.5 10.7 3.1 1.4.1 3.2.6 4.2 1 .9.4 2.8.1 4.5-.7 3.4-1.7 9.3-1.1 9.3 1 0 2.3-2 5.4-3.1 4.8-.5-.4-.9-.1-.9.4 0 .6.5 1.1 1 1.1 1.9 0 1 4.3-2 9.6-1.8 3.3-2.6 5.5-1.9 5.9 1.5 1 7.9-6 7.9-8.5 0-1.2.7-3.5 1.6-5.1.9-1.9 1.3-4.1.9-5.9-.5-2.1-.1-3.2 1.3-4.2 2.6-1.8 4-4.3 2-3.6-.8.4-2-.2-2.6-1.3-1.4-2.2-3.8-2.5-4.5-.7-.3 1-.8 1-2.1-.1s-1.9-1.2-2.5-.3c-.4.6-1.2.8-2 .3-2.9-1.8 0-3.3 5-2.6 2.8.4 5.5.3 6.2-.3 2-1.5 5.3-2 7.1-1 1.1.6 2.2.6 3-.1.9-.8 2.7-.7 6.5.5 4.4 1.3 5.1 1.8 4.6 3.4-.7 2.3 2.8 6.5 6.2 7.3 1.8.4 2.1.1 2.1-2.4-.1-1.5-.4-2.6-.8-2.4-1.1.7-5.3-4.2-4.6-5.3.5-.9 8.2-1.7 25-2.7 5.7-.3 9.4-1.9 6.5-2.9-4.9-1.6-22.8-2.3-29.4-1.2-2.3.4-5.5-1-5.5-2.5 0-.6 3.9-.9 10.8-.8 14.6.4 37.4-1.1 39.1-2.5.8-.6 1.6-1 1.8-.9.9.8 2.6.2 1.7-.6-1.4-1.3-6.7-2.4-5.9-1.1.7 1.1-1.8 1.4-2.8.3-.6-.6-6-1.3-10.9-1.4-2.1 0-3.5-1.8-1.6-2.1.7 0 2.4-.3 3.8-.5s7.9-.8 14.4-1.3c12.8-1 18.9-2.5 18.3-4.3-.2-.7-2.6-1.5-5.3-1.8-2.7-.4-7.7-1.3-11.2-2-5.3-1.1-6.5-1.1-7.2.1-.7 1.1-1.1 1.1-2.4.1-.9-.8-1.6-.9-1.6-.3 0 .6-3.6 1-9.2 1h-9.3l5.5-1.9c3.6-1.2 7.9-1.8 12.5-1.7 3.9.1 8-.2 9.3-.6 1.3-.4 2.2-.3 2.2.3 0 .5 1.5.8 3.3.5 1.7-.2 7.1-.6 12-.8 6.8-.2 9 0 10 1.2.7 1 1.2 4.8 1.2 10.5 0 6.2.4 9.2 1.2 9.4.7.3 1.4-.6 1.7-1.9.2-1.3.9-4.6 1.5-7.4.5-2.8.8-6 .5-7.1-.3-1.2.2-3.3 1.1-4.7 1-1.4 1.5-3.7 1.3-5-.5-2.6.8-4.9 3.5-5.9 1.8-.7 1.9-3.2.1-3.2-.5-.1-1.9-.6-3.2-1.3-1.8-1-2-1.5-1-2.6.7-.7 1.9-1.3 2.7-1.2.8.1 1.6-1.1 1.8-2.6.3-2.3-.1-2.9-2.2-3.4-3.3-.8-3.7-.3-4.4 4.8l-.6 4.2-9.4 1.8c-5.2.9-9.9 1.5-10.4 1.1-.6-.3-.7-.2-.4.4.3.5-1.5 1.5-4.1 2.2-2.6.7-5.4 1.8-6.2 2.5-.8.8-4.9 1.8-9 2.5-4.1.6-8.6 1.4-10 1.7-2 .5-2.2.4-1-.6 1.2-.9-.3-1-6.5-.6-7.9.4-20.5 2.3-21.4 3.2-.7.7.3 1.3 2.7 1.7 1.2.2 2.4.6 2.8 1 .4.3 1.5.2 2.5-.4 1.3-.7 1.9-.6 1.9.2 0 .6.7.8 1.6.5.9-.3 2.8-.9 4.2-1.3 2.5-.6 2.6-.6.6 1.4-2.1 2.2-5.8 3.2-15.3 3.9-3.6.2-7.2 1-8 1.7-.8.7-1.2.7-.8.1.4-.8-.4-.8-2.8 0-3.2 1-4.4 2.7-2 2.8.6 0 2 .4 3.3.9 1.4.5 2.2.5 2.2-.2 0-.6.4-.7 1-.4.6.4.5 1.1-.3 2-.6.7-1.4 1.1-1.6.9-.2-.2-.9 0-1.5.5-3.1 2.5-13.5 4.2-23.6 3.9l-10.5-.4 12-.2c15.1-.3 13.6-2-1.9-2.1-6.1-.1-11.8-.2-12.6-.3-3.9-.2-28.1 1.5-32.5 2.3-2.7.5-5.5 1-6.2 1.1-.7.1-1 .5-.7 1 .3.4.1.8-.5.8-.5 0-1.3-.5-1.6-1-.9-1.4-3.5.7-3.5 2.7 0 1 .6 1.3 1.8.8 2.5-1 22-1 22.9 0 .5.4.2.5-.4.1-.7-.4-1.3-.2-1.3.5s-1 .9-2.5.7c-2.1-.4-15.2 1.7-22.5 3.7-1.9.5-2.2.4-1-.4.8-.6 1.3-1.1 1-1.2-.3 0-1.4-.2-2.4-.4-1.1-.2-3.7.5-5.9 1.5-3.5 1.7-3.8 1.7-3.2.2.3-.9.3-1.3 0-1-.4.4-2.4 0-4.6-.7l-3.9-1.4v3c0 2.2.6 3.2 2.5 4.1l2.5 1.1-3.8 2.3c-3.9 2.3-5.8 2.3-13.1-.2-3-1 1-2.9 6.2-2.9 4.6 0 5.2-.2 4.9-2-.6-3.9-1.2-4.9-2.3-3.8-.8.8-2 .8-3.9.2-1.5-.6-3.3-.9-4-.7-1.8.4-2.6-3.2-1-4.2.9-.6.9-1.2 0-3-1.4-2.6-.5-5.4 1.5-4.6.8.3 1.5.2 1.5-.2s1.9-.6 4.2-.5c2.4 0 4.7-.5 5.5-1.3.8-.8 2.3-1.4 3.3-1.4 2.6 0 3.5-1.9 1.3-2.6-1-.3-3.3-1.3-5.1-2.1-5.3-2.3-2.4-4.3 8.3-5.7 4.1-.5 4-.5 2.9-1.6-.5-.5-3.4-1.2-6.4-1.6-8.4-1-10.8-3.8-4.2-4.9 5.6-1 10.3-2.8 9.4-3.6-.4-.5-2.7-.9-5.2-1-2.5-.1-4.9-.6-5.5-1-.5-.4-3.2-.9-6-1.1-3.5-.2-5-.8-5-1.8s1.1-1.4 4-1.3c2.2.1 4.7-.1 5.5-.4.8-.3 2-.7 2.5-.8 3.1-.4 6.5-1.8 6.5-2.7 0-.5-.4-.7-.8-.4-.5.3-3.3-.1-6.3-.9S104 69 102.2 69c-4.2 0-3.9-2.3.4-2.8 1.6-.2 3.4-.7 3.9-1.2.6-.5 2.8-1.2 4.9-1.6l3.9-.7-6.4-2.3c-3.5-1.3-7.2-2.1-8.3-1.8-1.2.4-1.7.2-1.4-.7.2-.7 1.8-1.4 3.4-1.5 1.7-.1 4.2-1.3 5.7-2.7l2.7-2.5-4-1.6c-4-1.6-5.4-3.6-2.5-3.6.9 0 1.8-.7 2.2-1.6.3-.8 1.5-1.4 2.7-1.3 5.1.4 11.6-.2 11.6-1 0-1.1-4.8-2.5-7.7-2.2-2.4.3-5.9-2.4-4.4-3.3.4-.3 2.3-.7 4.2-1 5.9-.7 8.7-1.7 9.3-3.2.6-1.7-2.9-3.4-6.6-3.2-3.9.2-4.8-.2-4.8-1.7 0-.9.9-1.5 2.3-1.5 6.6-.2 15.3-1.3 16.2-2.1.5-.5 1.7-.9 2.7-.9 1 0 1.8-.7 1.8-1.5 0-1.2-1.4-1.5-7-1.5-4.3 0-7-.4-7-1.1 0-.5-.5-.7-1-.4-.5.3-1 .2-1-.3 0-1.8 3.5-2.4 16.5-2.7 7.2-.2 15.5-.6 18.5-1 6.2-.7 18.4-3.6 13.3-3.1-2.2.2-3.3-.2-3.3-1.1 0-1-3.7-1.3-17.2-1.5-9.5-.1-19.1-.1-21.3 0-4.7.2-13.8-.8-13.2-1.4.2-.3 6.6-.6 14-.9 7.5-.2 14.2-.7 14.8-1.1.8-.4.9-.3.5.5-.5.8.3 1 3.1.6 3.7-.5 12-1 32.8-1.9 5.6-.3 10.1-1 10.3-1.6.2-.5 1.7-1 3.3-1 1.6 0 2.9-.5 2.9-1 0-.7-32.8-1-96.5-1H0v200zM114.3 16.2c2.9-.1 3.7 1.5 1.2 2.4-1.8.7-7.5-1.4-7.5-2.8 0-.6.7-.7 1.8-.2.9.4 2.9.7 4.5.6zM106 87.5c0 .9-.6 1.2-1.6.8-1.3-.5-1.3-.7-.2-1.4 1.7-1.1 1.8-1.1 1.8.6zm189.7 1c.2.5-.9 1.1-2.4 1.1-1.6.1-7.2.3-12.5.6-5.4.2-9.6.3-9.5.1.2-.1 2.8-.9 5.8-1.7 5.9-1.6 18-1.7 18.6-.1zm-189.3 9.6c-.3.5-1 .7-1.5.3-.5-.3-.7-1-.3-1.5.3-.5 1-.7 1.5-.3.5.3.7 1 .3 1.5zm128.8 9.1c-.5.5-2.2 1.1-3.8 1.3-1.6.2-4.4.6-6.2 1-4 .7-3.5-1.1.9-2.9 3.2-1.4 10.6-.9 9.1.6zm14.8 1.9c0 .6-.4.7-1 .4-.5-.3-1-1.1-1-1.6 0-.6.5-.7 1-.4.6.3 1 1.1 1 1.6zm-68.7 8.6c-.7.2-1.9.2-2.5 0-.7-.3-.2-.5 1.2-.5s1.9.2 1.3.5zm-37.3 9.2c0 .5-.9 1.3-2 1.6-2.2.7-18.2 1.3-17.5.7 2.4-2.4 19.5-4.4 19.5-2.3zm5 .1c0 .5-.8 1-1.7 1-1.5 0-1.6-.2-.3-1 1.9-1.2 2-1.2 2 0zm29.3-.1c4.2.2.2 1.9-6 2.6-3.6.4-7.2.9-8 1.2-.7.3-1.3-.2-1.3-1.1 0-1.9 6.1-3.5 11.5-3 1.1.1 2.8.3 3.8.3zM157 128c0 .5-.7.7-1.5.4-.8-.4-1.5-.8-1.5-1 0-.2.7-.4 1.5-.4s1.5.4 1.5 1zm-54 6.9c0 1.4 3.3 2.3 4 1.1.4-.7 2-1 3.6-.8 3.8.4 4.7 4.2 1.3 5.1-1.3.4-2.9.1-3.5-.4-.7-.6-2.2-.8-3.3-.4-2 .6-3.3-.7-3.8-3.8-.2-.9.2-1.7.7-1.7.6 0 1 .4 1 .9zm279.1 114.4c-.8.8-1.1.7-1.1-.4 0-2 1.3-3.4 1.8-1.9.3.7-.1 1.7-.7 2.3zm-1.7 6.4c-.2 2-.8 4.1-1.3 4.7-.5.6-1.2 2.7-1.6 4.6-.4 1.9-1.4 4.4-2.1 5.5-1.3 1.7-1.4 1.8-1.4.2 0-2.8 5.6-18.7 6.6-18.7.2 0 .1 1.6-.2 3.7zm-184 11.4c.5.5.7 1.1.4 1.4-1 1-10.6 1.8-14.2 1.1-3.5-.7-4.9-2.9-2.3-4 1.8-.7 15 .5 16.1 1.5zM316 277.4c0 .2-.7.6-1.5 1-.8.3-1.5.1-1.5-.4 0-.6.7-1 1.5-1s1.5.2 1.5.4zM45 288.1c0 1.1-.4 1.7-1 1.4-.5-.3-1-1.3-1-2.1s.5-1.4 1-1.4c.6 0 1 .9 1 2.1zm99.7-1.1c.9 0 1.3.3 1 .7-.9.8-8.8 1.2-10.7.4-1.7-.7 4.7-2 6.8-1.5.8.2 2.1.4 2.9.4zm158.3.6c0 .2-1.3.4-3 .4-1.6 0-3-.4-3-.8 0-.5 1.4-.7 3-.4 1.7.2 3 .6 3 .8zm-24.2 11.5c-.2 2.1-.7 3.9-1.1 3.9-.5 0-.6.8-.2 1.9.3 1.1-.3 2.8-1.4 4.2-2.4 2.9-2.7 1.2-.6-3.8 1.8-4.3 1.9-7.3.3-7.4-1 0-1-.2 0-.6.6-.2 1.2-1.1 1.2-1.9 0-.9.5-1.2 1-.9.6.4.9 2.4.8 4.6zM42 296.3c2.2-.6 2.9 2.1.8 3.3-1.1.7-3.9-2.2-3.7-4 0-.7.2-.7.5 0s1.4 1 2.4.7zm91.7 1.4c.3.8-2.6 1.1-9.1 1-8.8-.2-11.6-.8-8.3-2 2.5-.9 17.1-.1 17.4 1zm12-.2c-.3.8-3 1-9.4.6-.7-.1-1.3-.4-1.3-.9 0-.4 2.5-.7 5.5-.7 3.2 0 5.4.4 5.2 1zM265 297c1.2.8 1.1 1-.7 1-1.3 0-2.3-.5-2.3-1 0-1.3 1.1-1.3 3 0zm83 0c0 .5-.4 1-1 1-.5 0-1-.5-1-1 0-.6.5-1 1-1 .6 0 1 .4 1 1zm-106.2 9.4c8.3 1.1 1.8 2.6-11.3 2.5-9.6 0-12.5-.5-12.5-1.9 0-.9 14.1-1.8 18.5-1.3 1.1.1 3.5.4 5.3.7zM43 308c0 1.7-.3 1.9-1.9 1.1-1-.6-2.1-.7-2.5-.4-.3.3-.6 0-.6-.8s1.1-1.6 2.5-1.7c1.9-.1 2.5.3 2.5 1.8zm263.5-1c.3.5.1 1-.4 1-.6 0-1.1-.5-1.1-1 0-.6.2-1 .4-1 .3 0 .8.4 1.1 1zm46 0c.8 1.3-2 2.4-4.1 1.6-2-.8-.9-2.6 1.6-2.6 1 0 2.2.5 2.5 1zm-240.2.7c-.7.2-1.9.2-2.5 0-.7-.3-.2-.5 1.2-.5s1.9.2 1.3.5zm60.3 6.8c6 .4 17.1.8 24.7 1 13.8.3 15.9.7 14.1 2.5-1.9 1.9-49.8 3.8-51.9 2-.7-.6-2.2-1.1-3.2-1-1 .1-2.2.1-2.8 0-.5-.1-9.5-.2-20-.1-10.4 0-20.3-.2-22-.6l-3-.6 2.5-.8c1.4-.3 12.3-.6 24.3-.6 18.9.1 22-.2 23.4-1.6.9-.9 2-1.4 2.4-1.2.4.3 5.6.7 11.5 1zm99.6 5.7c-1.5 1.5-2.1-1.4-.9-4.2l1.1-2.5.4 2.9c.2 1.6-.1 3.3-.6 3.8zm-47.9-2.5c-.7.2-1.9.2-2.5 0-.7-.3-.2-.5 1.2-.5s1.9.2 1.3.5zm-77.7 8.7c16.8.4 16.7.4 16 1.5-.8 1.3-49.7.9-49.3-.4.2-.5 3.7-1.1 7.8-1.3 4.1-.2 7.9-.4 8.4-.6.6-.2 1.5-.1 2.1.1.7.2 7.4.6 15 .7zm31.8.5c.8 1.3-3.1 1.7-9.4 1.2l-5.5-.5 5-.7c7.9-1 9.3-1 9.9 0zm5.6.6c0 1.7-.2 1.8-2.5.9-1.3-.5-1.4-.8-.3-1.5 1.9-1.3 2.8-1.1 2.8.6zm17.3-.6c.4.1.7.5.7 1 0 .6-2.3.8-5.2.5-2.9-.3-6.3-.5-7.6-.5-1.3.1-2.1-.3-1.7-.8.4-.8 6.4-.8 13.8-.2zm6.2.1c.3.5.1 1-.4 1-.6 0-1.1-.5-1.1-1 0-.6.2-1 .4-1 .3 0 .8.4 1.1 1zm96.5.4c-1 1-21 1.5-21 .5s4-1.4 13.7-1.4c4.6 0 7.8.4 7.3.9zm-82.8.8c-.9.9-1.5.9-2.4 0-.9-.9-.7-1.2 1.2-1.2s2.1.3 1.2 1.2zm14.3-.2c.3.6-.1.7-.9.4-1.8-.7-2.1-1.4-.7-1.4.6 0 1.3.4 1.6 1zm-56.2 8.9c1 .1 1.6.4 1.3.9-.7 1.1-72.4 1.8-73.5.6-2-1.9 5.6-2.4 36.4-2 18.7.3 34.8.5 35.8.5zm40.5.5c.5.6-.6.6-15.8.7-16 .1-22.5-.2-21.3-.9 1.3-.8 36.2-.6 37.1.2zm61.8-.1c.4.4-.5.7-2 .7s-2.5-.4-2.2-.9c.7-1 3.1-.9 4.2.2zm25.9-.4c.6.1.3.5-.5 1-1.3.7-19.3.8-22.5.2-4.8-1 16.4-2.1 23-1.2zm3.5.6c0 .8-.4 1.5-1 1.5-.5 0-1-.7-1-1.5s.5-1.5 1-1.5c.6 0 1 .7 1 1.5zm36.8.2c.2.8-.5 1.3-1.7 1.3s-2.1-.6-2.1-1.6c0-1.8 3.1-1.5 3.8.3zM230 338c0 .5-.2 1-.4 1-.3 0-.8-.5-1.1-1-.3-.6-.1-1 .4-1 .6 0 1.1.4 1.1 1zm20.3-.3c-.7.2-1.9.2-2.5 0-.7-.3-.2-.5 1.2-.5s1.9.2 1.3.5zm6.7-.3c0 .3-.4.8-1 1.1-.5.3-1 .1-1-.4 0-.6.5-1.1 1-1.1.6 0 1 .2 1 .4zm8 .6c-2 1.3-3.3 1.3-2.5 0 .3-.6 1.4-1 2.3-1 1.5 0 1.5.2.2 1zm-73.4 9.3c.4.4-1.3.7-3.7.8-50.8 1-74 1.2-77.4.5-1.1-.3-2.7-.5-3.5-.6-.8-.1-.1-.6 1.5-1 3.8-1 82.1-.7 83.1.3zm28.4.3c-.6 1.1-11.7 1.8-13.9.8-1.4-.5-1.3-.7.4-1.4 2.7-1 14.1-.5 13.5.6zm26.4-.7c4.9 0 8.6.4 8.3.8-1 .9-32.7 1.1-32.7.2 0-1.1 2.8-1.5 9.5-1.3 3.3.1 10 .2 14.9.3zm15.6 1.2c0 .5-.4.9-1 .9-.5 0-1-.7-1-1.6 0-.8.5-1.2 1-.9.6.3 1 1 1 1.6zm18-.5c0 .2-.9.4-2.1.4-1.1 0-1.8-.4-1.4-1 .5-.8 3.5-.3 3.5.6zm33.1-.7c2.2.8 2 .9-2.3 1.6-3.4.5-19.8.2-23.6-.4-.2-.1-.1-.4.2-.9.6-1.1 22.8-1.4 25.7-.3zm-249.8 7.3c-.2 2.9-.6 10-.9 15.8-.3 5.7-.8 10.7-1 11-.6.5-2.8-2.9-2.9-4.5-.1-.6.2-1.8.7-2.7.6-1.2.3-2.6-.7-4.2-1.1-1.6-1.2-2.6-.6-3.1.6-.3.9-2.6.7-5.1-.2-3.3.2-5.1 1.6-7 1.4-1.7 1.8-3.2 1.3-5.1-.5-2.1-.4-2.4.7-1.5.9.7 1.3 2.9 1.1 6.4zM201 348c0 .5-.2 1-.4 1-.3 0-.8-.5-1.1-1-.3-.6-.1-1 .4-1 .6 0 1.1.4 1.1 1zm69-.2c0 .4-1.6.8-3.5.9-1.9.1-3.5-.3-3.5-.8s1.6-.9 3.5-.9 3.5.4 3.5.8zm4.7-.2c-.3.3-1.2.4-1.9.1-.8-.3-.5-.6.6-.6 1.1-.1 1.7.2 1.3.5zm10.6.5c-.8.8-1.6.8-3 0-1.6-.9-1.4-1 1.2-1.1 2.1 0 2.6.3 1.8 1.1zm-118 8c13.7.2 25.1.7 25.3 1.1.3.4.2.8-.3.9-2.4.3-39.1.7-59.8.7h-27.2c-3.8.1-4.4-1.3-1-2.1 1.2-.3 8.7-.6 16.6-.6 8-.1 14.6-.3 14.8-.4.2-.2 1.8-.3 3.6-.1 1.7.1 14.4.4 28 .5zm87.2.2c8.3-.2 15.5-.4 16-.4 5.8-.1 19.6.9 20.1 1.4 1 1 .7 1-33.1 1.2-30.2.2-33.5 0-33.5-1.7 0-.5.3-.7.8-.5.4.3 3.4.2 6.7-.2 3.3-.4 6.5-.4 7-.1.6.3 7.8.5 16 .3zm59.4.7c2 0 .5 1.3-1.9 1.7-1.1.2-2-.2-2-.8 0-.6-.5-.7-1.2-.2-1.6 1-15.8 1.1-15.8 0 0-.7.3-.8 6.2-1.1 2.1-.1 4-.5 4.3-.8.3-.3 2.5-.2 4.8.3 2.3.4 4.8.8 5.6.9zm-101.9.4c-.4.6-3.9 1-7.7.9-8.1-.2-7.5-.1-7-1.1.3-.4 3.9-.7 8.1-.8 5.1 0 7.2.3 6.6 1zm5.4.6c-2.2.9-2.9.6-2-.9.4-.6 1.4-.7 2.3-.4 1.5.6 1.4.7-.3 1.3zm5.6 0c0 .5-.7 1-1.5 1s-1.5-.5-1.5-1c0-.6.7-1 1.5-1s1.5.4 1.5 1zM70.1 369.3c-.8.8-1.1.5-1.1-.9 0-2.7 1.4-4.1 1.8-1.9.2.9-.1 2.2-.7 2.8zm117.1-3.1c12.6.2 16.8.6 16.8 1.5 0 .7-.4 1.3-1 1.3-.5 0-1-.4-1-.9 0-.6-1.2-.6-2.7-.2-1.6.4-22.1.8-45.7.9-23.5 0-43.1.3-43.4.6-.6.7-3.2-1.3-3.2-2.5 0-.4 7.7-.8 17.1-.8 9.5 0 17.3-.2 17.4-.3.3-.3 14-.2 45.7.4zm96.5-.1c7.3.1 14.8 1.6 9.8 1.9-1.1.1-3.1.4-4.5.6-2.9.5-7.6.6-32.2.3-9.7 0-18.1.2-18.6.5-.6.3-1.3.3-1.6-.2-.2-.4-3.6-.7-7.5-.7-6.7.1-8.9-.6-5.7-1.8.7-.3 11.6-.6 24.1-.6 12.5 0 23.1-.3 23.4-.6.3-.4 1.6-.4 2.8 0 1.3.3 5.7.6 10 .6zm-70.8 1.2c1.4-.4 1.4-.3.1.5-.8.6-2.8.8-4.5.5-2.5-.5-2.7-.7-1-1.3 1.1-.4 2.4-.4 2.9 0 .5.5 1.6.6 2.5.3zm93.6-.3c.3.5-.1 1-.9 1-.9 0-1.6-.5-1.6-1 0-.6.4-1 .9-1 .6 0 1.3.4 1.6 1zm10.5 0c3 .9 2.1 1.2-4.2 1.4-4.6.1-5.6-.3-4.1-1.7.8-.9 5.1-.7 8.3.3zm-96.3.6c-.3.3-1.2.4-1.9.1-.8-.3-.5-.6.6-.6 1.1-.1 1.7.2 1.3.5zm119.3.4c0 .5-.2 1-.4 1-.3 0-.8-.5-1.1-1-.3-.6-.1-1 .4-1 .6 0 1.1.4 1.1 1zm-271 9.2c-.1 2.6-.3 3-1 1.6-.6-.9-.7-2.3-.4-3.2.9-2.5 1.4-1.9 1.4 1.6zm56.5-1c1.1 0 12.4-.1 25-.1 12.7 0 26.2-.1 30-.1 3.9-.1 7.7-.1 8.5 0 .8.1 7.1.1 14 .1 14.1-.2 19.8.5 18.2 2.1-.6.6-4.5.9-8.9.8-12.9-.3-24.5-.4-29.3-.1-4.3.2-13.2.3-15.7.2-.7-.1-1.9-.1-2.5-.1-6.7 0-43.4 0-47.1.1-5.5 0-6.8-.6-6-2.7.5-1.3 1.6-1.5 6.2-.8 3.1.4 6.5.7 7.6.6zm182.5.2c4.3.5 4.5.5 3.4 1.6-.5.5-9.6.9-21.9.9h-38.7c-15 .1-17.8-.2-17.8-1.4s2.3-1.5 14.5-1.3c8 .1 14.8.5 15.1.9.2.5 1.5.4 2.8-.1 1.3-.5 9.5-.9 18.2-.9 8.7-.1 16-.4 16.2-.6.3-.3 1.7-.2 3.1.1 1.4.3 3.7.7 5.1.8zm6.5-.5c.3.5.1 1.2-.5 1.6-.5.3-1-.1-1-.9 0-1.8.6-2.1 1.5-.7zm-204.9 1.3c.4.5-1.1.8-3.4.8s-4.2-.4-4.2-.9c0-1 6.5-.9 7.6.1zm121.9-.2c.3.5-.1 1-.9 1-.9 0-1.6-.5-1.6-1 0-.6.4-1 .9-1 .6 0 1.3.4 1.6 1zm-6.5 1c0 .5-.2 1-.4 1-.3 0-.8-.5-1.1-1-.3-.6-.1-1 .4-1 .6 0 1.1.4 1.1 1zm150 1c-2 .5-3.9.5-4.4-.1-.6-.5.7-.9 3.5-.8l4.4.1-3.5.8zm-313.7 9.8c-.3 1.2-.9 2.2-1.3 2.2-1.3 0-1.8-3.6-.7-5.5.8-1.5 1.1-1.6 1.8-.3.4.8.5 2.4.2 3.6zm68.7-2.4c1.4 0 4.5-.2 7-.3 4.7-.3 65.6-.3 70 0 1.4.1 10.6.1 20.5.1 9.9-.1 20.5-.1 23.5-.1h19.5c23-.2 48.8 0 51.5.3 1.4.2 3.3.4 4.3.4 1 .1 1.6.6 1.3 1.1-.6 1-7 1.2-32.6 1.3-9.6 0-18.3-.3-19.3-.7-1-.4-2.1-.5-2.4-.1-.3.3-1.2.1-2-.5-.9-.8-1.3-.8-1.3 0 0 .6-1.7 1-3.7 1-2.1 0-7.2 0-11.3.1-4.1.1-13-.1-19.7-.4-8.2-.4-12.4-.3-12.8.4-.4.7-2.3.8-4.9.5-6.4-1-22.7-1.1-23.3-.2-.3.4-1 .4-1.6-.1-.7-.6-4.3-.8-8.2-.6-3.8.2-16.2.3-27.5.3s-21.6 0-23 .1c-10.1.6-16-.3-16-2.5 0-1.2.9-1.3 4.8-.8 2.6.4 5.8.7 7.2.7zm-61 1.7c0 1.1-.4 1.7-1 1.4-.5-.3-1-1.3-1-2.1s.5-1.4 1-1.4c.6 0 1 .9 1 2.1zm4.5-1.1c.3.5.1 1-.4 1-.6 0-1.1-.5-1.1-1 0-.6.2-1 .4-1 .3 0 .8.4 1.1 1zm28.6.5c-.1 1.5-2.4 1.2-2.9-.3-.3-.9.2-1.3 1.2-1 1 .1 1.7.7 1.7 1.3zm12.3-.6c1.8.7 1.8.8.3 1.4-1.7.6-6.7-.7-6.7-1.8 0-.7 4.2-.5 6.4.4zm266.6-.2c0 1.3-5 3.2-6.6 2.6-3.1-1.2-1.4-3.3 2.6-3.3 2.2 0 4 .3 4 .7zM97.9 398.1c-1.5.9-3.2.2-2.4-1.1.3-.5 1.3-.6 2.1-.3 1.2.4 1.3.8.3 1.4zM359 397c0 .5-.4 1-1 1-.5 0-1-.5-1-1 0-.6.5-1 1-1 .6 0 1 .4 1 1z"/><path d="M125 32.1c0 .5.5.7 1 .4.6-.3 1-.8 1-1.1 0-.2-.4-.4-1-.4-.5 0-1 .5-1 1.1zM306.2 62.4c-1.3 4.4-1.2 4.8.7 3.7.7-.5 1.1-2.2.9-4.2l-.4-3.4-1.2 3.9zM297.6 70.5c-.8.9-1.9 1.5-2.3 1.5-.4-.1-.9.6-1.1 1.4-.2.9.1 1.6.7 1.6s1.1-.5 1.1-1.1c0-.6.7-.3 1.6.5 2 2 3 2 3.8 0 1.8-4.7-.6-7.1-3.8-3.9zM311 72.1c0 .5.5.7 1 .4.6-.3 1-.8 1-1.1 0-.2-.4-.4-1-.4-.5 0-1 .5-1 1.1zM322.8 82c-.3 1.6-.1 3 .3 3 1.4 0 3.1-3 2.5-4.5-.9-2.5-2.3-1.7-2.8 1.5zM272.6 80.7c-.7.7-2.7 1-11.6 1.2-4 .1-5.1.4-4 1.1 1.3.8 1.2 1-.4 1-1.3 0-1.7.3-1 1 .6.6 2.3.6 4.7-.1 2.1-.5 5-.9 6.5-.7 1.5.1 4.9-.1 7.5-.5 4.5-.8 4.7-1 3-2.2-2-1.6-3.6-1.9-4.7-.8zM247.9 84.1c-1 .6-.7.9 1.4.9 2.9 0 3.5-.5 1.4-1.3-.8-.3-2-.1-2.8.4zM322.6 91.8c-.2.4-.1 1.4.3 2.1.6 1 1 .9 1.4-.3.6-1.6-.8-3.2-1.7-1.8zM292.6 100.8c-.9 1.4 1 3.3 2.7 2.6 2.1-.8 2.2-2 .1-2.8-2-.8-2.2-.8-2.8.2zM321.3 102.5c-.9 2.5.4 2.9 1.7.6.7-1.5.7-2.1 0-2.1-.6 0-1.3.7-1.7 1.5zM105 109c0 .5-.7.7-1.5.4-.8-.4-1.5-.1-1.5.6 0 1-.3 1-1.5 0-1.6-1.3-1.8-1-.9 1.4.3.8 1.1 1.3 1.9 1 .7-.3 1.9.1 2.6.8 2.2 2 3.9 2 3.9 0 .1-1.1.6-.6 1.5 1.3.7 1.6 1.4 2.5 1.4 1.9.1-1.5 3.9-2.7 7.5-2.5 4.2.4 2.8-2.3-1.5-2.7-1.9-.2-3.9-.8-4.5-1.3-1.6-1.3-7.4-2-7.4-.9zM295.5 121.5c-2.2 1.8-2.5 2.5-1.3 2.5.9 0 1.9.6 2.2 1.2.6 1.7 3.6-1.9 3.6-4.4 0-2.4-.9-2.2-4.5.7zM290 131c-4.3 2.3-5 2.4-5 .5 0-2.6-1.8-1.6-3.1 1.7-.7 1.8-1.5 3.7-1.7 4.3-.3.5.1.5.9-.1s3.5-1.9 6.1-2.9c2.6-.9 5.5-2.6 6.4-3.6 2.2-2.4.9-2.4-3.6.1zM210 131.4c0 .2.7.9 1.5 1.6.9.7 1.5.8 1.5.2 0-.5-.7-1.2-1.5-1.6-.8-.3-1.5-.4-1.5-.2zM227 138.8c0 1.1 3.9 4.7 6.8 6.1 5.5 2.9 25.8.7 38.6-4.1 8.2-3 5.8-3.3-5.5-.7-5.2 1.2-11.1 2.2-13.1 2.3-2.1 0-3.8.3-3.8.7 0 .4-2.3.7-5.1.8-3.9 0-6.4-.6-10.7-2.9-6-3.2-7.2-3.5-7.2-2.2zM179.4 140.1c-.3.6-1.9.9-3.4.5-1.9-.3-3.3 0-4.1 1-.8 1-1.5 1.2-2.3.4-1.4-1.4-3.3-1.3-3.9.4-.5 1.2.6 1.4 5.4 1 3.5-.2 5.9 0 5.9.6s1.3 1 3 1c3 0 5.1-2.4 4.3-4.8-.6-1.5-3.9-1.6-4.9-.1zM123 140.9c0 .5.7 1.5 1.7 2.2 1.5 1.3 1.5 1.2.4-.9-1.2-2.3-2.1-2.8-2.1-1.3zM276.4 141.4c-1 .8-1.6 1.7-1.3 2 .3.3 1.4-.3 2.4-1.4 2.1-2.3 1.7-2.6-1.1-.6zM159 142c-1.1.8-.7.9 1.5.4 3.7-.8 4.5-1.4 1.9-1.4-1 0-2.6.5-3.4 1zM185.5 141.9c-1 1.7 1.2 2.1 2.5.6 1-1.2 1-1.5-.3-1.5-.9 0-1.8.4-2.2.9zM127.6 151.9c-.3.5.1 1.4.8 2 1.6 1.3 3.2-.2 2.1-1.9-.8-1.2-2.2-1.3-2.9-.1zM161.5 152.6l-3 1.4 3-.6c1.7-.4 3.8-.7 4.8-.8.9 0 1.7-.4 1.7-.8 0-1.2-3.2-.9-6.5.8zM180.5 152.1c-1.6.6-1.6.8-.3.8.9.1 1.8.6 2 1.2.2.7 1.2.4 2.6-.8l2.3-1.8-2.3-.1c-1.3-.1-3.2.2-4.3.7zM261 153c-3.6 1.5-4 1.9-2 1.9 1.4.1 3.9-.8 5.5-1.9 3.7-2.4 2.5-2.4-3.5 0zM240.5 153.1c-.4.5-.3 1 .2 1 6.9 1 8 .7 3.3-.9-1.8-.7-3.2-.7-3.5-.1zM179.5 160.2c-3.3 1-6.9 2-8 2.2-2.7.6-7.5 2.5-7.5 3 0 .2 6 .2 13.2 0 9.8-.3 13.7-.8 14.7-1.9 1.3-1.2 1.1-1.5-1-2.3-1.3-.6-2.8-.7-3.3-.4-.5.3-.6 0-.3-.5 1.2-2-1.7-2-7.8-.1zM250.7 160.7c-1.4.4-1.6.8-.6 1.9.7.9 3.1 1.4 6.5 1.4 2.9 0 5.5.4 5.9.9.8 1.4 5.4.6 7.3-1.2 1-1.1 1.2-1.7.4-1.7-.7 0-1.2.6-1.2 1.2-.1.8-.6.5-1.5-.5-1-1.4-2.1-1.7-4.3-1.2-1.8.3-3.3.2-3.7-.4-.6-1.1-5.4-1.3-8.8-.4zM155.1 167.1c-5.3 1.6-3.1 1.9 2.9.5 3-.8 4.4-1.4 3-1.4-1.4 0-4 .4-5.9.9zM142.8 168.7c1.8.2 4.5.2 6 0s0-.4-3.3-.4-4.5.2-2.7.4zM181.5 169.7c-4.8.6-7.7 2.4-6.4 3.9 3 3.6 12.9 2.4 12.9-1.5 0-1.5-2.5-3.7-3.3-3-.1.1-1.5.4-3.2.6zM272 169.8c-1.9.1-4.5.8-5.8 1.4-1.8 1-2.5.9-3.1-.1-.5-.8-1.1-.9-1.4-.4-.4.6-3.2.8-6.4.6-4.2-.3-5.5-.1-4.7.7 1.2 1.2 4.6 1.7 19.4 2.9 9.9.8 12.6.8 17.5-.3 1.1-.3 2.3-.5 2.8-.5.4-.1.7-.5.7-1s-2.6-1.2-5.7-1.6c-3.2-.3-6.7-.9-7.8-1.3-1.1-.4-3.6-.6-5.5-.4zM123.4 171.7c.3.8.6 1.8.6 2.3 0 1 7.7.7 8.7-.4.9-.9-1.6-2.5-4.2-2.7-1.1 0-2.8-.2-3.8-.4-1.3-.2-1.7.1-1.3 1.2zM245.3 170.7c-1.8.7-1.6 2.3.2 2.3.8 0 1.5-.7 1.5-1.5s-.1-1.5-.2-1.4c-.2 0-.9.3-1.5.6zM297.1 171.6c0 1.1.3 1.4.6.6.3-.7.2-1.6-.1-1.9-.3-.4-.6.2-.5 1.3zM142.6 171.9c-.3.5.7 1.1 2.4 1.3 1.8.3 3.1 0 3.4-.9.6-1.5-4.9-1.9-5.8-.4zM138.5 173c-.3.5-.2 1 .4 1 .5 0 1.3-.5 1.6-1 .3-.6.2-1-.4-1-.5 0-1.3.4-1.6 1zM199.3 172.7c-2.4.9-1.3 2.3 1.8 2.3 2 0 2.9-.4 2.7-1.3-.5-1.3-2.6-1.8-4.5-1zM280.2 179.7c-1.9 2-.7 4.3 2.3 4.3 1.8 0 2.5-.5 2.5-2 0-2.7-3.1-4.2-4.8-2.3zM174.2 179.7c-1.2.3-3.4 1-4.8 1.8-2.3 1.2-2.4 1.4-.9 2.9 1.2 1.2 2.8 1.4 6.3 1 2.6-.3 8.1-.4 12.2-.2 27.1 1 53-.6 53-3.4 0-.4-.6-.8-1.2-.8-.7-.1-3.5-.3-6.3-.5-7.8-.6-55.7-1.3-58.3-.8zM168.8 189.6c-.2.1-3 .5-6.2.9-3.3.3-6.6 1-7.4 1.4-.8.5-2.3.6-3.3.4-1.1-.3-1.9-.1-1.9.5 0 2.4 27.8 2.8 30.2.4 1.9-1.9-.1-3.1-5.9-3.5-2.9-.3-5.4-.3-5.5-.1zM205.8 189.5c-.4.4-4.1 1-8.7 1.4-1.1.1-1.1.4-.1 1.6 1 1.2 3.8 1.4 14.3 1.2 8.6-.1 13.2-.6 13.4-1.3.5-1.4-6.6-2.4-7.4-1.1-.3.5-.8.5-1.2 0-.6-1.1-9.5-2.5-10.3-1.8zM245 190.5c-7.4.7-13.7 1.3-14 1.2-1.2-.2-5 1.5-5 2.4 0 1.5 11.2 1.6 26.3.4 5.7-.5 8.4-1.2 9.7-2.5 1-1 3.1-2 4.7-2.3 6.4-.9-9.2-.4-21.7.8zM269.2 191.6c-1.3 1.5-.6 1.5 4.8.5.6-.1-2.3-2.1-3-2-.3 0-1.1.7-1.8 1.5zM297.5 211.3c-2.2 1.2-.7 3.3 2.3 3.1 4.8-.2 5.2-.4 5.2-2.4 0-1.5-.6-1.9-3.1-1.7-1.6.1-3.7.5-4.4 1zM178 212c0 .5 1.4 1 3.1 1 1.7 0 2.8-.4 2.4-1-.3-.6-1.7-1-3.1-1-1.3 0-2.4.4-2.4 1zM297.5 220c-.3.5-1.9 1-3.6 1-1.8 0-2.9.5-2.9 1.4 0 3.2 9.2 3.1 10.5-.1.9-2.4-2.7-4.4-4-2.3zM286.5 222c-.3.5-.1 1 .4 1 .6 0 1.1-.5 1.1-1 0-.6-.2-1-.4-1-.3 0-.8.4-1.1 1zM287.7 230.9c-2.4.9-2.6 2-.7 3 3.1 1.7 8 .2 8-2.5 0-1.5-4.1-1.8-7.3-.5zM281.8 232.7c.7.3 1.6.2 1.9-.1.4-.3-.2-.6-1.3-.5-1.1 0-1.4.3-.6.6zM282 241c-.8.5-2.6 1-3.9 1-2 0-2.1.2-1.1 1.5.7.8 2.4 1.5 3.9 1.5 2.8 0 7.1-2.5 7.1-4.1 0-1.2-4.1-1.1-6 .1zM272 242c-1.2.7-1.2 1.2-.2 2.2.9.9 1.5.9 2.4 0 1.6-1.6-.2-3.4-2.2-2.2zM267.1 251.3c-2.5 2.5-1.1 3.7 4 3.6 3.7-.2 5.3-.7 6-2.1 1.1-2 1.1-2-4.8-2.3-2.3-.1-4.7.3-5.2.8zM263 252.9c0 .6.5 1.3 1 1.6.6.3 1-.1 1-.9 0-.9-.4-1.6-1-1.6-.5 0-1 .4-1 .9zM261.5 259.8c-.3.4-2.3.7-4.3.8-7.5.4-14.1 1.2-15.2 1.9-2.2 1.4.2 2.2 6.7 2.4 3.7.1 7.7.4 8.7.7 3.6 1.1 12.4-2.8 12.6-5.6 0-.8-7.7-1-8.5-.2zM231.9 263c-.5.4.8.7 3 .8 2.2.1 4.3-.3 4.6-.8.7-1.2-5.8-1.1-7.6 0zM283.3 271.7c-2.1.8-1.5 2 1.1 2.5 2.9.6 5.1-.5 4.2-2.1-.7-1.1-3.1-1.3-5.3-.4zM263.8 272.7c.7.3 1.6.2 1.9-.1.4-.3-.2-.6-1.3-.5-1.1 0-1.4.3-.6.6zM269.5 273c.3.5 1.3 1 2.1 1s1.4-.5 1.4-1c0-.6-.9-1-2.1-1-1.1 0-1.7.4-1.4 1zM160.1 281c-3.7 1.8-3 3.1 1.8 3.6 1.4.1 2.6.3 2.6.3 0 .1 6.4.3 14.3.5 17.3.5 24.3-.7 21.4-3.6-2-2-11.7-2.7-18.1-1.4-4.8 1-6.4 1-8.3 0-3-1.7-9.5-1.4-13.7.6zM202.4 281.3c-.8 2.1.2 3.5 1.6 2.1.5-.5.6-1.5 0-2.4-.8-1.2-1-1.2-1.6.3zM211.6 281.3c-1.4 1-1.6 1.6-.7 2.2 1.5.9 3.5-.8 3-2.4-.3-.8-1-.7-2.3.2zM216.7 281.2c-.9.5-1.4 1.4-1.1 2.1.3 1 3.3 1.3 11.3 1.1 6-.1 11.4-.4 11.9-.8.6-.3 1.2-.2 1.4.3.2.5 3.6.6 8.2.1 4.3-.4 8.7-.5 9.7-.3 1.3.4 1.9 0 1.9-1.1 0-1-.9-1.6-2.2-1.7-16-.4-26.1-.3-26.5.4-.2.4-.9.4-1.6 0-1.7-1-11.2-1.1-13-.1zM280.7 280.6c-.3.4-4.5.6-9.1.6-4.7-.1-8.8.3-9.1.8-.9 1.4 4 2.3 8 1.6 2-.4 3.5-.3 3.5.2 0 .6.8 1.3 1.7 1.6 1.1.5 2.6-.3 4.4-2.4 1.5-1.6 2.4-3 2-3-.4 0-1.1.3-1.4.6zM166.8 290.2c-.2.6-1.8 1.1-3.6 1-2.2 0-3.2.4-3.2 1.4 0 1.2.8 1.5 3.5 1.1 2.2-.3 3.9 0 4.6.9.8.9 2.3 1.2 4.8.9 2-.3 9-.7 15.6-1 6.6-.2 12.6-.4 13.3-.4.8-.1 1.2-.9 1-1.9-.3-1.4-1.5-1.7-7.4-1.8-3.8 0-7.4-.3-8-.6-.8-.6-5.1-.4-13.7.6-2 .2-4 0-4.3-.5-.7-1.3-2.2-1.1-2.6.3zM209.2 291.3c-.9 1.1-1 1.7-.2 2.2 1.5.9 2.3.1 1.8-2.1-.3-1.5-.4-1.6-1.6-.1zM170.3 300.2c.1.8-.6 1.2-1.7 1-1.1-.2-1.7.1-1.4 1 .3.7 1.3 1.4 2.4 1.6 1 .2 2.9.8 4.2 1.4 1.7.9 3.1.9 5.8-.1 4.4-1.6 13.4-.6 13.4 1.5 0 1.3.3 1.3 2.3 0 3.2-2.1 7.8-2.8 11.4-1.7 2.7.8 3.2.7 3.7-1.2.7-2.8-.7-4.2-2.5-2.4-1.7 1.6-4.1 1.4-7.2-.6-1.8-1.2-3.9-1.2-12.3-.3-7.8.9-10.6.8-12.5-.1-3.1-1.6-6-1.6-5.6-.1zM162 301.9c0 .5.7 1.2 1.6 1.5 2.2.9 2.4.8 2.4-.9 0-.8-.9-1.5-2-1.5s-2 .4-2 .9zM120 399c-1.8.6-.5.8 4.4.9 3.8.1 6.7-.2 6.3-.5-.9-1-8-1.2-10.7-.4zM171.5 399c-.3.5.1 1 1 1s1.3-.5 1-1c-.3-.6-.8-1-1-1-.2 0-.7.4-1 1zM205.4 399.2c-.3.4 3.2.8 7.7.8s8-.2 7.8-.4c-.8-.9-15-1.2-15.5-.4zM229.5 399.1c-1.6.6-1.4.8 1.3.8 3.3.1 4.1-.4 2-1.2-.7-.2-2.2-.1-3.3.4zM235.4 399.2c-.3.4 4.8.8 11.2.8 6.5 0 11.5-.2 11.3-.5-.9-.8-22-1.2-22.5-.3zM133.8 399.7c1.2.2 3 .2 4 0 .9-.3-.1-.5-2.3-.4-2.2 0-3 .2-1.7.4zM142.8 399.7c1.2.2 3.2.2 4.5 0 1.2-.2.2-.4-2.3-.4s-3.5.2-2.2.4zM153.3 399.7c.9.2 2.3.2 3 0 .6-.3-.1-.5-1.8-.5-1.6 0-2.2.2-1.2.5zM160.8 399.7c.6.2 1.8.2 2.5 0 .6-.3.1-.5-1.3-.5-1.4 0-1.9.2-1.2.5zM165.8 399.7c.7.3 1.6.2 1.9-.1.4-.3-.2-.6-1.3-.5-1.1 0-1.4.3-.6.6zM177.8 399.7c.6.2 1.8.2 2.5 0 .6-.3.1-.5-1.3-.5-1.4 0-1.9.2-1.2.5zM184.8 399.7c.7.3 1.6.2 1.9-.1.4-.3-.2-.6-1.3-.5-1.1 0-1.4.3-.6.6zM195.3 399.7c1.5.2 3.9.2 5.5 0 1.5-.2.2-.4-2.8-.4s-4.3.2-2.7.4zM223.8 399.7c.6.2 1.8.2 2.5 0 .6-.3.1-.5-1.3-.5-1.4 0-1.9.2-1.2.5zM261.3 399.7c.9.2 2.5.2 3.5 0 .9-.3.1-.5-1.8-.5-1.9 0-2.7.2-1.7.5zM305.3 399.7c.9.2 2.3.2 3 0 .6-.3-.1-.5-1.8-.5-1.6 0-2.2.2-1.2.5z"/></svg>