<?xml version="1.0" standalone="no"?>
<!DOCTYPE svg PUBLIC "-//W3C//DTD SVG 20010904//EN"
 "http://www.w3.org/TR/2001/REC-SVG-20010904/DTD/svg10.dtd">
<svg version="1.0" xmlns="http://www.w3.org/2000/svg"
 width="263.000000pt" height="263.000000pt" viewBox="0 0 263.000000 263.000000"
 preserveAspectRatio="xMidYMid meet">
<metadata>
Created by potrace 1.14, written by Peter Selinger 2001-2017
</metadata>
<g transform="translate(0.000000,263.000000) scale(0.100000,-0.100000)"
fill="#000000" stroke="none">
<path d="M507 1832 l-507 -507 508 -508 507 -507 147 147 147 146 134 -134
c73 -74 141 -140 150 -147 14 -12 75 45 522 492 l507 507 -505 504 c-278 278
-507 505 -511 505 -3 0 -69 -63 -146 -140 -77 -77 -143 -140 -147 -140 -4 0
-73 65 -153 145 l-145 145 -508 -508z"/>
</g>
</svg>
